<?xml version="1.0" encoding="UTF-8"?>
<svg xmlns="http://www.w3.org/2000/svg" xmlns:xlink="http://www.w3.org/1999/xlink" width="150px" height="150px" viewBox="0 0 150 150" version="1.1">
<g id="surface1">
<path style=" stroke:none;fill-rule:evenodd;fill:rgb(100%,100%,100%);fill-opacity:1;" d="M 75 0 C 116.421875 0 150 33.578125 150 75 C 150 116.421875 116.421875 150 75 150 C 33.578125 150 0 116.421875 0 75 C 0 33.578125 33.578125 0 75 0 Z M 98.238281 36.367188 C 78.09375 24.652344 52.25 31.628906 40.621094 51.917969 C 30.742188 69.15625 28.503906 89.695312 32.683594 105.261719 L 60.023438 78.3125 L 52.722656 73.96875 L 52.355469 73.726562 C 49.460938 71.597656 50.464844 66.847656 54.109375 66.195312 L 63.765625 64.480469 L 64.207031 64.378906 C 65.648438 63.953125 66.789062 62.765625 67.136719 61.269531 L 69.289062 51.609375 L 69.402344 51.183594 C 70.511719 47.726562 75.316406 47.25 77.066406 50.582031 L 81.6875 59.289062 L 81.921875 59.6875 C 82.777344 60.949219 84.230469 61.628906 85.769531 61.523438 L 95.539062 60.574219 L 95.945312 60.550781 C 99.546875 60.511719 101.542969 64.976562 98.921875 67.679688 L 92.109375 74.808594 L 91.808594 75.160156 C 90.882812 76.367188 90.664062 78 91.277344 79.433594 L 95.167969 88.476562 L 95.3125 88.859375 C 96.429688 92.304688 92.863281 95.613281 89.511719 93.957031 L 84.242188 91.382812 L 48.257812 126.855469 L 49.058594 127.230469 C 67.660156 135.515625 98.515625 120.863281 113.675781 94.410156 C 125.304688 74.117188 118.378906 48.082031 98.238281 36.367188 Z M 64.945312 85.476562 L 32.355469 118.304688 L 38.851562 124.847656 L 71.4375 92.019531 Z M 64.945312 85.476562 "/>
</g>
</svg>
